<?xml version="1.0" encoding="UTF-8" standalone="no"?>
<svg
   xmlns:dc="http://purl.org/dc/elements/1.1/"
   xmlns:cc="http://creativecommons.org/ns#"
   xmlns:rdf="http://www.w3.org/1999/02/22-rdf-syntax-ns#"
   xmlns:svg="http://www.w3.org/2000/svg"
   xmlns="http://www.w3.org/2000/svg"
   xmlns:xlink="http://www.w3.org/1999/xlink"
   id="svg4887"
   version="1.1"
   viewBox="0 0 266.5886 166.35129"
   height="6.5492635in"
   width="10.495614in">
  <defs
     id="defs4881">
    <clipPath
       id="clipPath5235"
       clipPathUnits="userSpaceOnUse">
      <use
         height="100%"
         width="100%"
         id="use5237"
         xlink:href="#g5231"
         y="0"
         x="0" />
    </clipPath>
    <clipPath
       id="clipPath5288"
       clipPathUnits="userSpaceOnUse">
      <use
         height="100%"
         width="100%"
         id="use5290"
         xlink:href="#g5284"
         y="0"
         x="0" />
    </clipPath>
  </defs>
  <metadata
     id="metadata4884">
    <rdf:RDF>
      <cc:Work
         rdf:about="">
        <dc:format>image/svg+xml</dc:format>
        <dc:type
           rdf:resource="http://purl.org/dc/dcmitype/StillImage" />
        <dc:title></dc:title>
      </cc:Work>
    </rdf:RDF>
  </metadata>
  <g
     transform="translate(-0.07487544,-80.455179)"
     id="layer1">
    <g
       clip-path="url(#clipPath5288)"
       id="g5286">
      <g
         id="g5284">
        <g
           transform="translate(-20.279169,207.58398)"
           id="g4868">
          <path
             id="path4842"
             d="m 21.218111,-116.75317 c 1.912053,-7.1532 3.600884,-7.83307 9.145737,-9.8774 H 132.43028 c 33.59853,23.37254 56.26759,51.991219 65.48348,87.067425 4.45683,24.704111 6.37116,50.086222 -3.65829,78.653342 H 28.90053 c -3.698447,-0.895241 -6.663942,-3.256386 -8.414078,-8.048249 z"
             style="fill:#000055;stroke:#000000;stroke-width:0.26458332px;stroke-linecap:butt;stroke-linejoin:miter;stroke-opacity:1" />
          <path
             id="path4844"
             d="m 207.42533,-126.63057 69.14177,-0.36583 c 5.27527,1.68184 9.79107,3.97126 10.24324,9.51157 v 94.749841 c -37.32362,2.626474 -57.0859,-14.703126 -73.16591,-36.217122 -10.92677,-21.231426 -14.76948,-43.525459 -6.2191,-67.678459 z"
             style="fill:#80e5ff;stroke:#000000;stroke-width:0.26458332px;stroke-linecap:butt;stroke-linejoin:miter;stroke-opacity:1" />
        </g>
        <g
           transform="translate(-334.54926,223.08273)"
           id="g5233"
           clip-path="url(#clipPath5235)">
          <g
             id="g5231">
            <path
               id="path4941"
               d="m 551.97176,-2.4604559 2.97485,1.55208299 2.91015,10.67057151 h 3.2335 l 4.91492,-12.5460055 h -3.23349 l -3.10418,8.148437 -1.4874,-6.790364 c -0.10348,-0.65963 -0.63029,-1.107601 -1.42275,-1.422743 l -4.20357,-0.06467 c -0.3128,0.127139 -0.68362,0.242675 -0.58203,0.452691 z"
               style="fill:#ffffff;stroke:#000000;stroke-width:0.26458332px;stroke-linecap:butt;stroke-linejoin:miter;stroke-opacity:1" />
            <path
               id="path4943"
               d="m 567.16925,-2.7838069 -1.94011,12.5783403 3.07183,0.032335 2.00478,-12.6106753 z"
               style="fill:#ffffff;stroke:#000000;stroke-width:0.26458332px;stroke-linecap:butt;stroke-linejoin:miter;stroke-opacity:1" />
            <path
               id="path4947"
               d="m 579.29489,-2.1694409 c -1.22097,-0.571688 -2.5454,-0.419083 -3.84786,-0.420356 -1.24982,0.05316 -2.32606,0.403879 -2.97482,1.487413 -0.61677,0.72765699 -0.80566,1.62646799 -1.0024,2.522135 0.11787,1.283675 0.69884,1.872681 1.32575,2.392795 l 2.71613,1.681424 c 0.56051,0.6301784 0.6024,1.1912076 -0.12933,1.649088 -0.77948,0.4820635 -1.57549,0.3806611 -2.52215,0.1940103 -0.70342,0.00902 -1.51683,-0.4730471 -2.13409,-1.0670572 l -0.51737,2.8454858 c 1.27596,0.8166208 2.15433,0.8380539 3.00715,0.8083764 1.21809,0.064738 2.34099,0.081881 2.87782,-0.1940102 1.22961,-0.6030087 2.25838,-1.3399078 2.71616,-2.4574651 0.4324,-0.9161602 0.25091,-1.83232 0.097,-2.748481 -0.31324,-0.700593 -1.05562,-1.401186 -2.23113,-2.101779 l -1.77842,-0.970052 c -0.36704,-0.68464201 0.0283,-1.08338801 0.32335,-1.51974801 0.66826,-0.402464 1.33651,-0.218976 2.00477,-0.226345 1.08971,0.08126 1.77724,0.403823 2.00477,1.002387 z"
               style="fill:#ffffff;stroke:#000000;stroke-width:0.26458332px;stroke-linecap:butt;stroke-linejoin:miter;stroke-opacity:1" />
            <path
               id="path5222"
               transform="scale(0.26458333)"
               d="m 2206.1582,-9.890625 -18.5762,47.417969 h 11.7325 l 3.666,-10.021485 12.955,-0.121929 1.9551,10.387554 11.3661,-0.364962 -9.6551,-47.297147 z m 5.6211,13.1992188 2.6889,12.7092672 -7.8217,0.0017 z"
               style="fill:#ffffff;stroke:#000000;stroke-width:0.99999994px;stroke-linecap:butt;stroke-linejoin:miter;stroke-opacity:1" />
          </g>
        </g>
      </g>
    </g>
  </g>
</svg>
